<?xml version="1.0" encoding="utf-8"?>
<!-- Generator: Adobe Illustrator 24.1.1, SVG Export Plug-In . SVG Version: 6.00 Build 0)  -->
<svg version="1.1" id="Laag_1" xmlns="http://www.w3.org/2000/svg" xmlns:xlink="http://www.w3.org/1999/xlink" x="0px" y="0px"
	 viewBox="0 0 300 300" style="enable-background:new 0 0 300 300;" xml:space="preserve">
<style type="text/css">
	.st0{fill:#4DD9FF;}
	.st1{fill:#E5E5E5;}
</style>
<g>
	<circle class="st0" cx="150.13" cy="150" r="150"/>
	<g>
		<g id="XMLID_2_">
			<g>
				<path class="st1" d="M238.32,167.67v65.9c0,5.94-4.86,10.8-10.8,10.8H68.78c-5.94,0-10.8-4.86-10.8-10.8v-65.9
					c0-0.12,0.01-0.23,0.02-0.34v-11.3h8.09h26.09h26.1h26.09h26.1h26.09h26.1h15.64v11.3C238.3,167.44,238.32,167.55,238.32,167.67
					z"/>
				<polygon class="st1" points="238.32,133.06 238.32,156.03 238.3,156.03 222.66,156.03 				"/>
				<polygon class="st0" points="238.32,133.06 222.66,156.03 196.56,156.03 212.22,133.06 				"/>
				<polygon class="st1" points="215.34,42.54 224.17,63.74 200.88,48.56 				"/>
				<polygon class="st0" points="224.17,63.74 200.07,73.77 176.79,58.59 200.88,48.56 				"/>
				<polygon class="st1" points="212.22,133.06 196.56,156.03 170.47,156.03 186.13,133.06 				"/>
				<polygon class="st1" points="200.07,73.77 175.98,83.8 152.7,68.62 176.79,58.59 				"/>
				<polygon class="st0" points="186.13,133.06 170.47,156.03 144.37,156.03 160.03,133.06 				"/>
				<polygon class="st0" points="175.98,83.8 151.89,93.83 128.6,78.65 152.7,68.62 				"/>
				<polygon class="st1" points="160.03,133.06 144.37,156.03 118.28,156.03 133.93,133.06 				"/>
				<polygon class="st1" points="151.89,93.83 127.79,103.86 104.51,88.68 128.6,78.65 				"/>
				<polygon class="st0" points="133.93,133.06 118.28,156.03 92.18,156.03 107.83,133.06 				"/>
				<polygon class="st0" points="127.79,103.86 103.7,113.89 80.42,98.71 104.51,88.68 				"/>
				<polygon class="st1" points="107.83,133.06 92.18,156.03 66.08,156.03 81.74,133.06 				"/>
				<polygon class="st1" points="103.7,113.89 79.61,123.92 56.33,108.74 80.42,98.71 				"/>
				<polygon class="st0" points="81.74,133.06 66.08,156.03 57.99,156.03 57.97,156.03 57.97,133.06 				"/>
				<polygon class="st0" points="79.61,123.92 57.67,133.06 48.84,111.86 56.33,108.74 				"/>
			</g>
			<g>
			</g>
		</g>
	</g>
</g>
</svg>
