<?xml version="1.0" encoding="utf-8"?>
<!-- Generator: Adobe Illustrator 24.1.1, SVG Export Plug-In . SVG Version: 6.00 Build 0)  -->
<svg version="1.1" xmlns="http://www.w3.org/2000/svg" xmlns:xlink="http://www.w3.org/1999/xlink" x="0px" y="0px"
	 viewBox="0 0 300 300" style="enable-background:new 0 0 300 300;" xml:space="preserve">
<style type="text/css">
	.st0{fill:#E5E5E5;}
	.st1{fill:#4DD9FF;}
</style>
<g id="Laag_2">
	<rect x="25.72" y="88.05" class="st0" width="244.08" height="120.72"/>
</g>
<g id="Laag_1">
	<g>
		<polygon class="st1" points="85.04,152.77 77.12,160.47 77.09,172.92 93.1,172.92 92.95,160.47 		"/>
		<circle class="st1" cx="215.03" cy="138.97" r="8.01"/>
		<polygon class="st1" points="86.27,150.99 93.97,158.9 106.42,158.93 106.42,142.92 93.97,143.07 		"/>
		<polygon class="st1" points="76.22,142.96 63.77,142.92 63.77,158.93 76.22,158.78 83.92,150.87 		"/>
		<polygon class="st1" points="85.15,149.09 93.07,141.39 93.1,128.93 77.09,128.93 77.24,141.39 		"/>
		<path class="st1" d="M229.47,144.94c-4.42,0-8.01,3.59-8.01,8.01c0,4.42,3.59,8.01,8.01,8.01c4.42,0,8.01-3.59,8.01-8.01
			C237.48,148.52,233.89,144.94,229.47,144.94z"/>
		<path class="st1" d="M209.41,12.41c-76.02-32.78-164.22,2.28-197,78.3s2.28,164.22,78.3,197c76.02,32.78,164.22-2.28,197-78.3
			C320.49,133.39,285.44,45.19,209.41,12.41z M215.03,199.96c-18.83,0-35.03-11.1-42.53-27.09l-0.03,0.05h-44.81l-0.03-0.05
			c-7.5,15.99-23.7,27.09-42.53,27.09c-25.96,0-47.01-21.05-47.01-47.01c0-25.96,21.05-47.01,47.01-47.01h129.94
			c25.96,0,47.01,21.05,47.01,47.01C262.04,178.91,240.99,199.96,215.03,199.96z"/>
		<path class="st1" d="M200.59,144.94c-4.42,0-8.01,3.59-8.01,8.01c0,4.42,3.59,8.01,8.01,8.01c4.42,0,8.01-3.59,8.01-8.01
			C208.61,148.52,205.02,144.94,200.59,144.94z"/>
		<circle class="st1" cx="215.03" cy="166.93" r="8.01"/>
	</g>
</g>
</svg>
