<?xml version="1.0" encoding="utf-8"?>
<!-- Generator: Adobe Illustrator 24.1.1, SVG Export Plug-In . SVG Version: 6.00 Build 0)  -->
<svg version="1.1" id="Laag_1" xmlns="http://www.w3.org/2000/svg" xmlns:xlink="http://www.w3.org/1999/xlink" x="0px" y="0px"
	 viewBox="0 0 300 300" style="enable-background:new 0 0 300 300;" xml:space="preserve">
<style type="text/css">
	.st0{fill:#4DD9FF;}
	.st1{fill:none;stroke:#E5E5E5;stroke-width:6;stroke-miterlimit:10;}
</style>
<circle class="st0" cx="150.13" cy="150" r="149.98"/>
<g>
	<path class="st1" d="M70.19,193.48c-8.12,0.19-23.23-58.34-0.74-98.78c6.17-11.09,13.33-17.43,16.98-20.6
		c26.74-23.21,70.36-29.12,101.91-9.67c64.4,39.7,54.19,167.67,40.45,172.34C228.79,236.77,138.27,191.89,70.19,193.48z"/>
	<path class="st1" d="M228.79,120.35c-54.59,1.91-100.53-18.57-103.77-21.38c-2.03-1.76-5.53-1.16-6.66,0.34
		c-7.94,10.49,2.19,41.06,32.53,57.12c45.47,24.06,63.1,28.1,88.15,27.55"/>
</g>
</svg>
