<?xml version="1.0" encoding="utf-8"?>
<!-- Generator: Adobe Illustrator 24.1.1, SVG Export Plug-In . SVG Version: 6.00 Build 0)  -->
<svg version="1.1" xmlns="http://www.w3.org/2000/svg" xmlns:xlink="http://www.w3.org/1999/xlink" x="0px" y="0px"
	 viewBox="0 0 300 300" style="enable-background:new 0 0 300 300;" xml:space="preserve">
<style type="text/css">
	.st0{fill:#E5E5E5;}
	.st1{fill:#4DD9FF;}
</style>
<g id="Laag_2">
	<rect x="61.1" y="46.74" class="st0" width="179.28" height="203.29"/>
</g>
<g id="Laag_1">
	<g>
		<polygon class="st1" points="119.56,94.25 119.56,103.92 204.1,71.96 204.1,62.29 		"/>
		<path class="st1" d="M209.5,12.29C133.45-20.5,45.21,14.57,12.42,90.62c-32.79,76.05,2.28,164.29,78.33,197.08
			c76.05,32.79,164.29-2.28,197.08-78.33C320.62,133.32,285.55,45.09,209.5,12.29z M210.26,177.44h-0.21
			c0.97,10.55-8.21,22.26-21.83,27.14c-14.79,5.29-29.18,0.53-32.16-10.64c-2.97-11.17,6.6-24.51,21.39-29.81
			c10.34-3.7,20.47-2.47,26.66,2.41V76.31l-84.54,31.97v103.9h-0.21c0.97,10.55-8.21,22.26-21.83,27.14
			c-14.79,5.29-29.18,0.53-32.16-10.64c-2.97-11.17,6.6-24.51,21.39-29.81c10.34-3.7,20.47-2.47,26.66,2.41v-92.87l-0.01-2.16
			l0.01,0v-9.67v-6.46v-5.94l96.85-36.62v7.82v4.58v11.85l0.01,2.17l-0.01,0V177.44z"/>
	</g>
</g>
</svg>
