<?xml version="1.0" encoding="utf-8"?>
<!-- Generator: Adobe Illustrator 24.1.1, SVG Export Plug-In . SVG Version: 6.00 Build 0)  -->
<svg version="1.1" xmlns="http://www.w3.org/2000/svg" xmlns:xlink="http://www.w3.org/1999/xlink" x="0px" y="0px"
	 viewBox="0 0 300 300" style="enable-background:new 0 0 300 300;" xml:space="preserve">
<style type="text/css">
	.st0{fill:#E5E5E5;}
	.st1{fill:#4DD9FF;}
</style>
<g id="Laag_2">
	<circle class="st0" cx="149.74" cy="150.39" r="121.39"/>
</g>
<g id="Laag_1">
	<g>
		<path class="st1" d="M155.05,219.98c0-3.29-2.42-5.95-5.39-5.95c-2.98,0-5.39,2.67-5.39,5.95c0,3.29,2.42,5.95,5.39,5.95
			C152.63,225.94,155.05,223.27,155.05,219.98z"/>
		<path class="st1" d="M149.66,195.97c4.47,0,8.09-4,8.09-8.93c0-4.93-3.62-8.93-8.09-8.93s-8.09,4-8.09,8.93
			C141.56,191.98,145.19,195.97,149.66,195.97z"/>
		<path class="st1" d="M150.13,134.43c-8.6,0-15.57,6.97-15.57,15.57s6.97,15.57,15.57,15.57c8.6,0,15.57-6.97,15.57-15.57
			c0-2.01-0.39-3.93-1.09-5.7l-2.31-4C159.44,136.73,155.06,134.43,150.13,134.43z M150.13,162.81c-7.07,0-12.81-5.73-12.81-12.81
			c0-7.07,5.73-12.81,12.81-12.81c7.07,0,12.81,5.74,12.81,12.81C162.93,157.07,157.2,162.81,150.13,162.81z"/>
		<path class="st1" d="M81.22,98.1l62.97,29.25c1.9-0.5,3.88-0.79,5.94-0.79c2.02,0,3.97,0.28,5.84,0.76l63.2-29.36
			c0.09-1.25,0.74-2.43,1.82-3.19c-16.44-21.07-42.06-34.64-70.86-34.64c-28.77,0-54.37,13.54-70.82,34.58
			C80.48,95.5,81.16,96.76,81.22,98.1z"/>
		<path class="st1" d="M207.5,110.64c-2.85,1.64-3.95,5.07-2.46,7.65c1.49,2.58,5.01,3.34,7.85,1.69c2.85-1.64,3.95-5.07,2.46-7.65
			C213.86,109.76,210.35,109,207.5,110.64z"/>
		<path class="st1" d="M185.71,138.79c4.27-2.47,5.92-7.6,3.69-11.47c-2.23-3.87-7.51-5.01-11.78-2.54
			c-4.27,2.47-5.92,7.6-3.69,11.47C176.17,140.12,181.44,141.26,185.71,138.79z"/>
		<path class="st1" d="M150.13,0c-82.84,0-150,67.16-150,150s67.16,150,150,150c82.84,0,150-67.16,150-150S232.97,0,150.13,0z
			 M150.13,255.94c-58.51,0-105.94-47.43-105.94-105.94S91.62,44.06,150.13,44.06S256.07,91.49,256.07,150
			S208.63,255.94,150.13,255.94z"/>
		<path class="st1" d="M139.12,236.48l-6.27-70.47h0.19c-2.54-2.71-4.44-6.03-5.47-9.71l-0.11,0.19l-56.84-39.92
			c-1.19,0.67-2.66,0.75-3.95,0.12c-4.12,10.31-6.41,21.54-6.41,33.31c0,45.35,33.6,82.83,77.26,88.96
			C137.74,237.95,138.33,237.09,139.12,236.48z"/>
		<path class="st1" d="M229.47,116.39l-56.78,39.88c-1.13,4.09-3.34,7.73-6.31,10.59l-6.15,69.08c1.25,0.54,2.19,1.66,2.49,3.02
			c43.66-6.13,77.26-43.61,77.26-88.96c0-11.76-2.28-22.97-6.39-33.26C232.23,117.36,230.67,117.19,229.47,116.39z"/>
		<path class="st1" d="M83.96,111.97c-1.49,2.58-0.39,6.01,2.46,7.65c2.85,1.64,6.36,0.89,7.85-1.69c1.49-2.58,0.39-6-2.46-7.65
			C88.96,108.63,85.45,109.39,83.96,111.97z"/>
		<path class="st1" d="M109.91,126.95c-2.23,3.87-0.58,9.01,3.69,11.47c4.27,2.47,9.55,1.33,11.78-2.54
			c2.23-3.87,0.58-9.01-3.69-11.47C117.42,121.95,112.14,123.08,109.91,126.95z"/>
	</g>
</g>
</svg>
